# xmcd CD database file
#
# Track frame offsets:
#	150
#	24305
#	49340
#
# Disc length: 979 seconds
#
# Revision: 0
# Processed by: cddbd v1.5.1PL0 Copyright (c) Steve Scherf et al.
# Submitted via: CDex 1.51
#
DISCID=1d03d103
DTITLE=ジョー・リノイエ - それだけしか言えない
DYEAR=1996
DGENRE=JPop
TTITLE0=それだけしか言えない
TTITLE1=今すぐに-In the Name of Love-
TTITLE2=それだけしか言えない[Original Karaoke]
EXTD=YEAR: 1996
EXTT0=
EXTT1=
EXTT2=
PLAYORDER=
